:SAMPLES-PER-SECOND 30
:FULLY-SPECIFIED
:DEGREES
440
root  -66.9431 34.0491 -36.6266 -164.495 -17.6026 -178.542
RightUpLeg  -5.46188 4.33477 6.0489
RightLeg  7.75872 8.26612 0.589126
RightFoot  -7.05733 -0.0884674 -0.93877
RightToes  -16.9143 -0.0649337 -0.151561
Spine  0.234412 1.16149 -0.833991
Spine1  0.385285 2.5476 -1.10875
HEad  -73.6085 -14.3154 6.32831
LeftShoulder1  -1.94126e-019 -3.10601e-018 -2.51263e-017
LeftArm  -14.1301 19.778 -76.6123
LeftForeArm  25.4109 -31.5996 -5.47026
LeftHand  -0.527058 -1.3189 9.27741
RightShoulder  -4.96962e-017 0 -2.36833e-017
RightArm  -12.924 -18.1707 73.7589
RightForeArm  51.4481 20.7192 1.86529
RightHand  -0.413792 0.127848 -8.76129
LeftUpLeg  -41.3279 3.05397 -2.50284
LeftLeg  28.2407 11.1648 5.0524
LeftFoot  6.09599 -0.071179 1.49824
LeftToes  -27.6254 1.31378e-006 1.14341e-007
441
root  -67.3754 33.8103 -37.7934 -165.199 -16.1058 -179.876
RightUpLeg  -5.55277 4.10214 4.50221
RightLeg  14.2546 9.46638 1.75989
RightFoot  -10.8194 -0.209644 -1.72641
RightToes  -16.3187 -0.0619017 -0.146585
Spine  -0.018763 1.08495 -1.4634
Spine1  -0.142876 2.36759 -2.32416
HEad  -73.3945 -13.1789 6.89363
LeftShoulder1  -1.94126e-019 -3.10601e-018 -2.51263e-017
LeftArm  -15.4129 20.9522 -76.0235
LeftForeArm  24.9555 -28.9569 -4.86744
LeftHand  -0.522085 -0.89985 9.76928
RightShoulder  -4.96962e-017 0 -2.36833e-017
RightArm  -15.1412 -18.526 74.9088
RightForeArm  51.1982 20.0345 1.74981
RightHand  -0.427841 0.0768934 -9.1368
LeftUpLeg  -39.0709 -1.79045 -2.3188
LeftLeg  26.6747 12.1426 5.09657
LeftFoot  7.53911 -0.116837 1.93473
LeftToes  0.326234 1.31378e-006 1.14341e-007
442
root  -67.7849 33.6007 -39.0784 -167.2 -15.1085 179.225
RightUpLeg  -5.3372 -0.445074 3.0464
RightLeg  22.6699 12.7094 4.32876
RightFoot  -11.8114 -0.327077 -2.69619
RightToes  -21.7712 -0.0915506 -0.190908
Spine  0.112749 0.794645 -1.9007
Spine1  0.127017 1.73732 -3.13302
HEad  -72.4446 -12.212 7.41657
LeftShoulder1  -1.94126e-019 -3.10601e-018 -2.51263e-017
LeftArm  -16.0342 21.7519 -75.4494
LeftForeArm  23.9188 -25.5711 -4.17168
LeftHand  -0.505882 -0.498473 10.0813
RightShoulder  -4.96962e-017 0 -2.36833e-017
RightArm  -18.7638 -18.4373 76.2085
RightForeArm  51.4261 19.877 1.71882
RightHand  -0.404349 -0.272103 -9.1919
LeftUpLeg  -37.1579 -6.94906 -1.5598
LeftLeg  32.916 17.1143 9.34771
LeftFoot  3.22936 -0.0323848 1.31039
LeftToes  -3.03328 1.31378e-006 1.14341e-007
443
root  -68.1896 33.5952 -40.2954 -168.645 -14.3139 178.458
RightUpLeg  -7.3987 -9.82521 0.411998
RightLeg  34.2554 16.4727 9.50339
RightFoot  -7.96011 -0.214123 -2.6447
RightToes  -35.6136 -0.184425 -0.289027
Spine  0.173555 0.621124 -2.25723
Spine1  0.256267 1.36273 -3.81166
HEad  -71.2587 -11.8223 7.62863
LeftShoulder1  -1.94126e-019 -3.10601e-018 -2.51263e-017
LeftArm  -16.3936 21.4309 -75.074
LeftForeArm  24.6217 -20.5068 -3.35072
LeftHand  -0.465362 -0.417368 9.40409
RightShoulder  -4.96962e-017 0 -2.36833e-017
RightArm  -22.9415 -18.7815 77.4494
RightForeArm  51.7184 19.8528 1.70688
RightHand  -0.410109 -0.546078 -9.82249
LeftUpLeg  -34.6333 -5.31829 -3.12311
LeftLeg  35.2956 15.7135 9.4591
LeftFoot  1.03761 -0.00318585 0.513429
LeftToes  -2.73852 1.31378e-006 1.14341e-007
444
root  -68.5456 33.6971 -41.3969 -169.338 -12.1379 178.296
RightUpLeg  -11.5635 -16.3923 -1.57283
RightLeg  45.764 14.7079 12.8883
RightFoot  -0.102866 -0.000534235 0.0269743
RightToes  -55.2399 -0.350178 -0.384104
Spine  -0.0507103 0.895639 -2.39021
Spine1  -0.193046 1.88374 -4.06529
HEad  -70.0425 -11.1328 7.12506
LeftShoulder1  -1.94126e-019 -3.10601e-018 -2.51263e-017
LeftArm  -17.1414 21.1493 -75.1125
LeftForeArm  27.9089 -15.7522 -2.71185
LeftHand  -0.428629 -0.72807 8.25363
RightShoulder  -4.96962e-017 0 -2.36833e-017
RightArm  -23.9656 -19.7756 77.8161
RightForeArm  50.4076 20.8877 1.95862
RightHand  -0.386056 -1.08988 -10.3546
LeftUpLeg  -31.4525 1.21694 -4.8332
LeftLeg  34.0395 12.3941 7.16006
LeftFoot  -1.96299 -0.00845281 -0.331852
LeftToes  0.907123 1.31378e-006 1.14341e-007
445
root  -68.8459 33.8798 -42.3353 -169.627 -9.19859 177.967
RightUpLeg  -17.5359 -19.0307 -2.63944
RightLeg  56.5735 9.85012 12.6797
RightFoot  8.75307 -0.162172 2.56347
RightToes  -57.1221 -0.36758 -0.390125
Spine  -0.236094 1.12517 -2.4741
Spine1  -0.57584 2.337 -4.23336
HEad  -69.5085 -9.4727 6.8031
LeftShoulder1  -1.94126e-019 -3.10601e-018 -2.51263e-017
LeftArm  -17.5749 20.9955 -75.3723
LeftForeArm  30.9141 -11.6734 -2.0524
LeftHand  -0.403831 -0.735947 7.77247
RightShoulder  -4.96962e-017 0 -2.36833e-017
RightArm  -22.2925 -19.7567 77.6774
RightForeArm  49.9209 21.505 2.09712
RightHand  -0.376373 -1.04538 -9.99332
LeftUpLeg  -28.5203 5.36777 -5.76106
LeftLeg  32.3174 11.6434 6.2837
LeftFoot  -3.29996 -0.0220995 -0.605642
LeftToes  1.92112 1.31378e-006 1.14341e-007
446
root  -69.0439 34.0868 -43.2246 -169.988 -7.00618 177.901
RightUpLeg  -22.8702 -19.7677 -2.28354
RightLeg  63.6391 5.32439 9.0067
RightFoot  9.76346 -0.120341 1.88556
RightToes  -43.5952 -0.247821 -0.334517
Spine  -0.290412 1.07759 -2.35907
Spine1  -0.680561 2.24044 -4.00192
HEad  -69.6595 -7.48883 6.51178
LeftShoulder1  -1.94126e-019 -3.10601e-018 -2.51263e-017
LeftArm  -17.8939 21.1845 -75.8385
LeftForeArm  32.6161 -9.6204 -1.6876
LeftHand  -0.404456 -0.607009 7.94061
RightShoulder  -4.96962e-017 0 -2.36833e-017
RightArm  -20.1538 -19.218 77.3142
RightForeArm  50.9633 21.8194 2.11479
RightHand  -0.410645 -0.333077 -9.44157
LeftUpLeg  -25.5641 6.19042 -5.74175
LeftLeg  30.5334 12.9989 6.4921
LeftFoot  -3.49465 -0.0273321 -0.734394
LeftToes  0.247489 1.31378e-006 1.14341e-007
447
root  -69.1273 34.3566 -44.1745 -171.26 -5.63762 178.766
RightUpLeg  -25.8854 -19.7784 -0.619225
RightLeg  65.82 2.9486 5.42805
RightFoot  5.90893 -0.0138808 0.766022
RightToes  -41.9871 -0.234548 -0.32607
Spine  0.00573923 0.910106 -1.87065
Spine1  -0.0750205 1.91423 -3.03385
HEad  -70.2 -5.62924 6.25757
LeftShoulder1  -1.94126e-019 -3.10601e-018 -2.51263e-017
LeftArm  -18.4335 21.5808 -76.5843
LeftForeArm  32.7598 -9.90229 -1.73791
LeftHand  -0.42305 -0.434865 8.53198
RightShoulder  -4.96962e-017 0 -2.36833e-017
RightArm  -18.9949 -18.1016 76.95
RightForeArm  52.2601 20.6262 1.83213
RightHand  -0.421564 -0.0992078 -9.2862
LeftUpLeg  -21.4103 5.45284 -4.38547
LeftLeg  28.2109 15.066 6.76059
LeftFoot  -3.74674 -0.0360963 -0.942002
LeftToes  0.42146 1.31378e-006 1.14341e-007
448
root  -69.1544 34.6242 -45.093 -172.17 -4.54816 179.371
RightUpLeg  -28.0973 -19.3824 0.970898
RightLeg  63.7969 2.24333 3.78156
RightFoot  4.7314 0.000143703 0.501179
RightToes  -39.0653 -0.21106 -0.309781
Spine  0.144167 0.680409 -1.45991
Spine1  0.211556 1.45731 -2.22643
HEad  -70.1356 -4.03087 6.03632
LeftShoulder1  -1.94126e-019 -3.10601e-018 -2.51263e-017
LeftArm  -17.5063 22.3357 -77.0001
LeftForeArm  30.8457 -11.5223 -2.02897
LeftHand  -0.430974 -0.177797 9.06869
RightShoulder  -4.96962e-017 0 -2.36833e-017
RightArm  -18.7448 -17.4911 76.8293
RightForeArm  52.6332 19.4421 1.59342
RightHand  -0.422845 -0.173204 -9.43934
LeftUpLeg  -17.5658 5.49124 -3.62689
LeftLeg  25.3795 17.14 6.68465
LeftFoot  -2.96317 -0.0253759 -0.819534
LeftToes  -0.821302 1.31378e-006 1.14341e-007
449
root  -69.1347 34.7972 -45.9872 -172.506 -3.95677 179.855
RightUpLeg  -29.4701 -18.9246 2.45423
RightLeg  58.0881 1.99666 2.70605
RightFoot  3.00567 0.00488003 0.318624
RightToes  -34.2388 -0.174173 -0.280321
Spine  0.0213501 0.349297 -1.07142
Spine1  -0.0229652 0.784948 -1.46087
HEad  -69.5664 -2.70286 6.04007
LeftShoulder1  -1.94126e-019 -3.10601e-018 -2.51263e-017
LeftArm  -16.014 23.378 -77.1048
LeftForeArm  29.32 -14.1875 -2.4838
LeftHand  -0.423498 -0.18338 8.90386
RightShoulder  -4.96962e-017 0 -2.36833e-017
RightArm  -19.0508 -17.7689 76.6993
RightForeArm  52.2798 19.1482 1.55155
RightHand  -0.396847 -0.344807 -9.14422
LeftUpLeg  -14.3423 4.90064 -2.75516
LeftLeg  22.71 18.0171 6.0856
LeftFoot  -2.53666 -0.019349 -0.712356
LeftToes  -2.58866 1.31378e-006 1.14341e-007
450
root  -69.118 34.8507 -46.8366 -172.33 -3.6806 179.798
RightUpLeg  -29.984 -18.4864 3.21525
RightLeg  49.0206 1.34117 1.31105
RightFoot  1.59279 0.00416682 0.198858
RightToes  -31.3905 -0.153613 -0.261513
Spine  -0.252159 0.0149163 -0.882726
Spine1  -0.56352 0.102107 -1.08748
HEad  -68.8409 -1.80707 6.44296
LeftShoulder1  -1.94126e-019 -3.10601e-018 -2.51263e-017
LeftArm  -14.149 24.0549 -76.7717
LeftForeArm  28.6846 -16.8621 -2.89193
LeftHand  -0.426301 -0.575987 8.40559
RightShoulder  -4.96962e-017 0 -2.36833e-017
RightArm  -20.1665 -18.3554 76.7567
RightForeArm  52.1025 18.8761 1.50739
RightHand  -0.411274 -0.179579 -9.1921
LeftUpLeg  -11.9151 5.58466 -2.58737
LeftLeg  20.1933 17.733 5.15635
LeftFoot  -2.57234 -0.0193659 -0.700985
LeftToes  -3.86575 1.31378e-006 1.14341e-007
451
root  -69.0765 34.7861 -47.7247 -172.359 -3.73059 179.395
RightUpLeg  -28.8597 -18.1027 3.17051
RightLeg  37.2335 0.342666 0.207677
RightFoot  1.72315 0.00528116 0.158017
RightToes  -28.5853 -0.134301 -0.242014
Spine  -0.419026 -0.230991 -0.806941
Spine1  -0.894572 -0.407462 -0.935722
HEad  -68.581 -1.57568 6.86786
LeftShoulder1  -1.94126e-019 -3.10601e-018 -2.51263e-017
LeftArm  -11.7008 24.0662 -76.1206
LeftForeArm  28.248 -19.1734 -3.18081
LeftHand  -0.424864 -0.827901 8.05895
RightShoulder  -4.96962e-017 0 -2.36833e-017
RightArm  -21.035 -19.3703 76.7347
RightForeArm  51.7433 19.0161 1.54561
RightHand  -0.403096 -0.334628 -9.2706
LeftUpLeg  -9.45252 6.48223 -2.63463
LeftLeg  18.1447 16.9212 4.29069
LeftFoot  -3.14202 -0.0272962 -0.833681
LeftToes  -6.29654 1.31378e-006 1.14341e-007
452
root  -68.9795 34.6174 -48.6355 -172.378 -3.99847 179.004
RightUpLeg  -26.5585 -16.4859 2.5737
RightLeg  23.9791 0.175784 0.0604053
RightFoot  2.75243 0.00902598 0.145852
RightToes  -24.1625 -0.105858 -0.209418
Spine  -0.565658 -0.410032 -0.751727
Spine1  -1.18489 -0.786785 -0.824886
HEad  -68.7579 -1.59104 7.22885
LeftShoulder1  -1.94126e-019 -3.10601e-018 -2.51263e-017
LeftArm  -10.1451 23.6725 -75.3936
LeftForeArm  28.2461 -21.2864 -3.42962
LeftHand  -0.43278 -1.14408 7.83526
RightShoulder  -4.96962e-017 0 -2.36833e-017
RightArm  -21.7522 -20.3494 76.6989
RightForeArm  51.7691 18.5926 1.46476
RightHand  -0.4095 -0.347964 -9.44158
LeftUpLeg  -7.81711 6.63381 -2.53783
LeftLeg  18.0093 16.4526 4.13492
LeftFoot  -4.40707 -0.0521423 -1.1935
LeftToes  -7.60222 1.31378e-006 1.14341e-007
453
root  -68.7173 34.3985 -49.531 -172.545 -4.51137 -179.777
RightUpLeg  -25.4311 -13.941 3.54776
RightLeg  19.5323 -0.498511 -0.143354
RightFoot  7.75549 0.0333931 0.0440707
RightToes  -13.6016 -0.048734 -0.123494
Spine  -0.708209 -0.380705 -0.147902
Spine1  -1.481 -0.729094 0.319826
HEad  -69.0546 -1.92135 7.36542
LeftShoulder1  -1.94126e-019 -3.10601e-018 -2.51263e-017
LeftArm  -10.2663 22.9784 -75.2361
LeftForeArm  28.4893 -23.4667 -3.75113
LeftHand  -0.447596 -1.43831 7.77283
RightShoulder  -4.96962e-017 0 -2.36833e-017
RightArm  -22.5019 -21.1763 76.2053
RightForeArm  52.242 17.739 1.29252
RightHand  -0.431093 -0.213535 -9.69421
LeftUpLeg  -8.02348 6.73699 -0.499743
LeftLeg  21.6998 15.5607 4.98373
LeftFoot  -7.06295 -0.128989 -1.92831
LeftToes  -8.57979 1.31378e-006 1.14341e-007
454
root  -68.4157 34.1067 -50.3967 -173.279 -5.14038 -178.297
RightUpLeg  -25.1962 -7.8209 3.95453
RightLeg  24.4537 -6.01966 -2.28144
RightFoot  2.8601 0.0182866 -0.174552
RightToes  -12.9595 -0.0457833 -0.117948
Spine  -0.659742 -0.343572 0.530201
Spine1  -1.38154 -0.654282 1.62504
HEad  -69.4145 -2.42951 7.29142
LeftShoulder1  -1.94126e-019 -3.10601e-018 -2.51263e-017
LeftArm  -11.9957 21.9288 -75.5074
LeftForeArm  28.4291 -26.072 -4.27415
LeftHand  -0.452277 -1.33259 7.96762
RightShoulder  -4.96962e-017 0 -2.36833e-017
RightArm  -23.4576 -21.2843 75.5882
RightForeArm  53.3702 16.1175 1.10215
RightHand  -0.441784 -0.196056 -9.90243
LeftUpLeg  -9.28109 6.97877 1.9148
LeftLeg  28.2987 14.4835 6.53316
LeftFoot  -9.80122 -0.241026 -2.64898
LeftToes  -9.86046 1.31378e-006 1.14341e-007
